<svg width="41" height="29" viewBox="0 0 41 29" fill="none" xmlns="http://www.w3.org/2000/svg">
<path d="M27.5312 11.6875L36.3812 2.8375C36.5779 2.64108 36.8284 2.50735 37.101 2.45319C37.3736 2.39903 37.6562 2.42688 37.913 2.53321C38.1698 2.63955 38.3893 2.8196 38.5439 3.05063C38.6984 3.28166 38.781 3.5533 38.7812 3.83125V25.1688C38.781 25.4467 38.6984 25.7183 38.5439 25.9494C38.3893 26.1804 38.1698 26.3605 37.913 26.4668C37.6562 26.5731 37.3736 26.601 37.101 26.5468C36.8284 26.4927 36.5779 26.3589 36.3812 26.1625L27.5312 17.3125M6.4375 27.1562H23.3125C24.4314 27.1562 25.5044 26.7118 26.2956 25.9206C27.0868 25.1294 27.5312 24.0564 27.5312 22.9375V6.0625C27.5312 4.94362 27.0868 3.87056 26.2956 3.07939C25.5044 2.28822 24.4314 1.84375 23.3125 1.84375H6.4375C5.31862 1.84375 4.24556 2.28822 3.45439 3.07939C2.66322 3.87056 2.21875 4.94362 2.21875 6.0625V22.9375C2.21875 24.0564 2.66322 25.1294 3.45439 25.9206C4.24556 26.7118 5.31862 27.1562 6.4375 27.1562Z" stroke="white" stroke-width="2.5" stroke-linecap="round"/>
</svg>
