<svg width="35" height="41" viewBox="0 0 35 41" fill="none" xmlns="http://www.w3.org/2000/svg">
<path d="M32.9688 9.95312C32.9688 14.2244 26.0425 17.6875 17.5 17.6875C8.9575 17.6875 2.03125 14.2244 2.03125 9.95312M32.9688 9.95312C32.9688 5.68187 26.0425 2.21875 17.5 2.21875C8.9575 2.21875 2.03125 5.68187 2.03125 9.95312M32.9688 9.95312V31.0469C32.9688 35.3181 26.0425 38.7812 17.5 38.7812C8.9575 38.7812 2.03125 35.3181 2.03125 31.0469V9.95312M32.9688 9.95312V16.9844M2.03125 9.95312V16.9844M32.9688 16.9844V24.0156C32.9688 28.2869 26.0425 31.75 17.5 31.75C8.9575 31.75 2.03125 28.2869 2.03125 24.0156V16.9844M32.9688 16.9844C32.9688 21.2556 26.0425 24.7188 17.5 24.7188C8.9575 24.7188 2.03125 21.2556 2.03125 16.9844" stroke="white" stroke-width="2.5" stroke-linecap="round" stroke-linejoin="round"/>
</svg>
