<svg width="35" height="41" viewBox="0 0 35 41" fill="none" xmlns="http://www.w3.org/2000/svg">
<path d="M16.2813 5.1925C16.1594 5.58625 16.0938 6.00437 16.0938 6.4375C16.0938 7.21375 16.7237 7.84375 17.5 7.84375H25.9375C26.3105 7.84375 26.6681 7.69559 26.9319 7.43187C27.1956 7.16815 27.3438 6.81046 27.3438 6.4375C27.3439 6.01546 27.2807 5.59578 27.1562 5.1925M16.2813 5.1925C16.5476 4.33131 17.0826 3.578 17.808 3.04289C18.5334 2.50777 19.4111 2.21896 20.3125 2.21875H23.125C25.0225 2.21875 26.6256 3.47125 27.1562 5.1925M16.2813 5.1925C15.5763 5.23562 14.875 5.28625 14.1737 5.3425C12.0531 5.51875 10.4688 7.32437 10.4688 9.4525V13.4688M27.1562 5.1925C27.8612 5.23562 28.5625 5.28625 29.2638 5.3425C31.3844 5.51875 32.9688 7.32437 32.9688 9.4525V28.9375C32.9688 30.0564 32.5243 31.1294 31.7331 31.9206C30.9419 32.7118 29.8689 33.1562 28.75 33.1562H24.5312M10.4688 13.4688H4.14062C2.97625 13.4688 2.03125 14.4138 2.03125 15.5781V36.6719C2.03125 37.8362 2.97625 38.7812 4.14062 38.7812H22.4219C23.5862 38.7812 24.5312 37.8362 24.5312 36.6719V33.1562M10.4688 13.4688H22.4219C23.5862 13.4688 24.5312 14.4138 24.5312 15.5781V33.1562M9.0625 27.5312L11.875 30.3438L17.5 23.3125" stroke="white" stroke-width="2.5" stroke-linecap="round" stroke-linejoin="round"/>
</svg>
